<svg width="160" height="160" viewBox="0 0 160 160" fill="none" xmlns="http://www.w3.org/2000/svg">
  <rect width="160" height="160" rx="36" fill="#0E1822"/>
  <rect x="16" y="16" width="128" height="128" rx="28" fill="url(#paint0_linear_31_7)"/>
  <circle cx="49" cy="67" r="16" fill="#ECF7FF"/>
  <circle cx="80" cy="57" r="22" fill="#ECF7FF"/>
  <circle cx="111" cy="67" r="16" fill="#ECF7FF"/>
  <path d="M28 122C31.9 105.8 42.4 96 56 96C63.9 96 70.7 99.3 75.6 105.3C70.5 109.7 66.9 115.6 65 122H28Z" fill="#ECF7FF"/>
  <path d="M58 126C62.2 103.2 73.6 91 80 91C86.4 91 97.8 103.2 102 126H58Z" fill="#ECF7FF"/>
  <path d="M95 122C93.1 115.6 89.5 109.7 84.4 105.3C89.3 99.3 96.1 96 104 96C117.6 96 128.1 105.8 132 122H95Z" fill="#ECF7FF"/>
  <defs>
    <linearGradient id="paint0_linear_31_7" x1="22" y1="22" x2="138" y2="138" gradientUnits="userSpaceOnUse">
      <stop stop-color="#45D0B1"/>
      <stop offset="0.58" stop-color="#2793C7"/>
      <stop offset="1" stop-color="#5FBCFF"/>
    </linearGradient>
  </defs>
</svg>
